<svg width="22" height="22" viewBox="0 0 22 22" fill="none" xmlns="http://www.w3.org/2000/svg">
<path d="M12 4.5H3C1.89543 4.5 1 5.39543 1 6.5V18.5C1 19.6046 1.89543 20.5 3 20.5H15C16.1046 20.5 17 19.6046 17 18.5V9.5" stroke="black" stroke-width="1.5" stroke-linecap="round"/>
<path d="M9.96967 10.4697C9.67678 10.7626 9.67678 11.2374 9.96967 11.5303C10.2626 11.8232 10.7374 11.8232 11.0303 11.5303L9.96967 10.4697ZM21.25 1C21.25 0.585786 20.9142 0.25 20.5 0.25L13.75 0.25C13.3358 0.249999 13 0.585786 13 0.999999C13 1.41421 13.3358 1.75 13.75 1.75H19.75V7.75C19.75 8.16421 20.0858 8.5 20.5 8.5C20.9142 8.5 21.25 8.16421 21.25 7.75L21.25 1ZM11.0303 11.5303L21.0303 1.53033L19.9697 0.469669L9.96967 10.4697L11.0303 11.5303Z" fill="black"/>
</svg>
