<svg width="27" height="22" viewBox="0 0 27 22" fill="none" xmlns="http://www.w3.org/2000/svg">
<path d="M27 2.60449C26.0066 3.04666 24.939 3.34444 23.8185 3.47867C24.9626 2.79174 25.8412 1.70324 26.2541 0.406071C25.1842 1.04225 23.9985 1.50472 22.7362 1.754C21.7271 0.674528 20.286 0 18.693 0C15.1166 0 12.4886 3.34557 13.2964 6.8186C8.694 6.58737 4.6125 4.37654 1.87987 1.0163C0.428625 3.51251 1.12725 6.77799 3.59325 8.4316C2.6865 8.40228 1.8315 8.153 1.08562 7.73677C1.02487 10.3097 2.86425 12.7168 5.52825 13.2526C4.74862 13.4646 3.89475 13.5143 3.02625 13.3473C3.7305 15.5536 5.77575 17.1587 8.20125 17.2039C5.8725 19.0346 2.9385 19.8523 0 19.5049C2.45138 21.0807 5.364 22 8.4915 22C18.7763 22 24.5869 13.2909 24.2359 5.4797C25.3181 4.69575 26.2575 3.7178 27 2.60449Z" fill="black"/>
</svg>
