<svg id="Calque_1" data-name="Calque 1" xmlns="http://www.w3.org/2000/svg" xmlns:xlink="http://www.w3.org/1999/xlink" viewBox="0 0 1500 200"><defs><style>.cls-1{fill:url(#Dégradé_sans_nom_89);}.cls-2{fill:url(#Dégradé_sans_nom_77);}.cls-3{fill:url(#Dégradé_sans_nom_54);}</style><linearGradient id="Dégradé_sans_nom_89" x1="-79.54" y1="101.63" x2="1524.06" y2="101.63" gradientUnits="userSpaceOnUse"><stop offset="0" stop-color="#e7a2c8"/><stop offset="0.49" stop-color="#f7cea8"/><stop offset="1" stop-color="#bcd89b"/><stop offset="1" stop-color="#efe572"/></linearGradient><linearGradient id="Dégradé_sans_nom_77" x1="-18.06" y1="130.38" x2="1524.05" y2="130.38" gradientUnits="userSpaceOnUse"><stop offset="0" stop-color="#efe572"/><stop offset="0.5" stop-color="#e7a2c8" stop-opacity="0.5"/><stop offset="0.99" stop-color="#36a9e1" stop-opacity="0.5"/></linearGradient><linearGradient id="Dégradé_sans_nom_54" x1="-26.9" y1="122.78" x2="1516.53" y2="122.78" gradientUnits="userSpaceOnUse"><stop offset="0" stop-color="#b9dcc7"/><stop offset="0.49" stop-color="#eee89c"/><stop offset="0.99" stop-color="#eabcd9" stop-opacity="0.7"/></linearGradient></defs><path class="cls-1" d="M1524,42.41c-11,15.86-50.07,67.94-120,83.5-57.46,12.79-105.22-5.66-124.51-13.82-78-33-77.65-78.43-127.08-90C1069.62,2.58,1051.39,126.17,960.9,127.81c-85.49,1.56-92.42-108.31-180-105.72-81,2.39-91.21,96.84-181,90.92-53.65-3.53-115.43-41.52-126.32-48.22-46-28.31-62.6-51.41-97.9-50.08-27.46,1-34.16,15.66-86.31,46.39C249.62,84.49,202,112.41,160.89,111.21c-51.64-1.52-96.66-35.85-133.6-64C-10.14,18.64-22.52-1.25-39.63,2.58c-25.16,5.63-35.3,57-39.91,101l56.64,97.62h1547Z"/><path class="cls-2" d="M1524.05,160.7c-15.45,4.73-39,8.92-65.27,0-43.88-14.89-49.61-50.67-89.47-75.1-60.33-37-128.79-5-144.21,2.89-45.94,23.49-54.28,54.76-94.74,57.75-26.06,1.93-42.29-9.59-72.61-25.89C989.62,83.72,944.91,59.69,903,59.62c-84.71-.14-98.23,97.72-174.73,88.07-47.6-6-45.75-44.32-115.79-67.86-21-7.07-77.44-26-139,0-65.74,27.82-69.33,78.26-116.63,79.72-41.68,1.3-45.47-37.65-111.79-68.17-19.12-8.8-78.21-34.89-148.42-13C44.31,94.72,6,131.44-18.06,160.68v40.47H1524.05Z"/><path class="cls-3" d="M1516.53,137.91a293.9,293.9,0,0,1-120.8,44.93c-55.29,7.35-98.63-3.33-124.36-9.94-77.62-19.92-76.86-45.5-126.17-52.9-82.64-12.4-102.09,56.87-192.58,56.23-85.49-.6-91.33-62.59-178.94-62.65-81-.06-92.15,53-181.91,48.06-53.61-2.92-115-25.38-125.83-29.34-45.75-16.74-62.09-30-97.39-29.9-27.47.11-34.31,8.23-86.76,24.63C217.9,147,186,157,152.9,153c-41.74-5-72.24-26.44-114.83-56.32A470.09,470.09,0,0,1-24.19,44.42L-26.9,201.15H1515.43Z"/></svg>