<svg id="Calque_1" data-name="Calque 1" xmlns="http://www.w3.org/2000/svg" xmlns:xlink="http://www.w3.org/1999/xlink" viewBox="0 0 1500 500"><defs><style>.cls-1{fill:url(#Dégradé_sans_nom_89);}.cls-2{fill:url(#Dégradé_sans_nom_77);}.cls-3{fill:url(#Dégradé_sans_nom_54);}</style><linearGradient id="Dégradé_sans_nom_89" x1="-70" y1="225.02" x2="1533.6" y2="225.02" gradientUnits="userSpaceOnUse"><stop offset="0" stop-color="#e7a2c8"/><stop offset="0.49" stop-color="#f7cea8"/><stop offset="1" stop-color="#bcd89b"/><stop offset="1" stop-color="#efe572"/></linearGradient><linearGradient id="Dégradé_sans_nom_77" x1="-8.52" y1="275.61" x2="1533.58" y2="275.61" gradientUnits="userSpaceOnUse"><stop offset="0" stop-color="#efe572"/><stop offset="0.5" stop-color="#e7a2c8" stop-opacity="0.5"/><stop offset="0.99" stop-color="#36a9e1" stop-opacity="0.5"/></linearGradient><linearGradient id="Dégradé_sans_nom_54" x1="-13.84" y1="511.11" x2="1528.26" y2="511.11" gradientTransform="matrix(-1, -0.02, 0.01, -0.82, 1504.08, 663.17)" gradientUnits="userSpaceOnUse"><stop offset="0" stop-color="#b9dcc7"/><stop offset="0.49" stop-color="#eee89c"/><stop offset="0.99" stop-color="#eabcd9" stop-opacity="0.7"/></linearGradient></defs><path class="cls-1" d="M1533.6,263.68c-24,37.57-62.36,84.76-114.72,105.75-70.21,28.15-129.31-5.37-148.43-16.68-66.32-39.21-70.12-89.26-111.8-87.59-47.3,1.89-50.88,66.71-116.62,102.46-61.5,33.46-117.92,9.1-138.94,0-70.05-30.25-68.2-79.49-115.81-87.2-76.5-12.38-90,113.37-174.72,113.2-41.91-.08-86.63-31-154.77-78-30.32-20.94-46.55-35.73-72.61-33.26-40.46,3.85-48.79,44-94.73,74.22C275,366.7,206.57,407.79,146.24,360.3c-39.86-31.38-45.6-77.37-89.48-96.49-26.31-11.46-49.82-6.08-65.26,0l-61.5-106c4.61-44,14.75-95.33,39.91-101C-13,53-.6,72.93,36.83,101.48c36.94,28.18,82,62.51,133.6,64,41.13,1.2,88.73-26.72,128.42-50.1C351,84.66,357.7,70.05,385.16,69c35.3-1.34,51.87,21.77,97.9,50.08,10.88,6.69,72.67,44.69,126.32,48.22,89.83,5.91,100-88.53,181-90.93,87.6-2.59,94.53,107.29,180,105.73,90.49-1.65,108.72-125.24,191.57-105.77,49.43,11.62,49.12,57.06,127.08,90,19.29,8.16,67,26.61,124.51,13.81,69.92-15.56,109-67.64,120-83.49Q1533.59,180.19,1533.6,263.68Z"/><path class="cls-2" d="M-8.52,215c24-29.23,62.37-66,114.74-82.29,70.2-21.9,129.3,4.19,148.42,13,66.32,30.53,70.11,69.47,111.79,68.18,47.3-1.47,50.89-51.91,116.63-79.73,61.51-26,117.92-7.07,139,0C692.05,157.67,690.2,196,737.8,202c76.5,9.64,90-88.22,174.73-88.08,41.92.07,86.63,24.11,154.76,60.73,30.32,16.31,46.55,27.82,72.61,25.89,40.46-3,48.8-34.25,94.74-57.74,15.41-7.89,83.88-39.85,144.21-2.89,39.86,24.42,45.59,60.21,89.47,75.09,26.31,8.92,49.82,4.74,65.26,0V437.3a541.66,541.66,0,0,0-63.15-70.74c-43.1-40.27-74-69.12-115.79-75.07-33.12-4.72-64.89,9.85-128.42,39-52.16,23.91-58.86,35.28-86.32,36.09-35.3,1-51.87-16.95-97.89-39-10.89-5.21-72.67-34.78-126.32-37.54-89.83-4.6-100,68.89-181.05,70.75-87.6,2-94.52-83.5-180-82.3-90.49,1.28-108.74,97.46-191.58,82.3C313.63,351.74,314,316.38,236,290.7c-25.83-8.51-69.35-22.24-124.51-10.76-56,11.66-97.16,43.73-120,65Z"/><path class="cls-3" d="M1524.44,286.22c-24.4,20.74-63.19,46.65-115.75,57.56-70.47,14.63-129.23-5.27-148.23-12-65.93-23.23-69.24-51.48-110.92-51.26-47.32.24-51.54,36.68-117.62,55.67-61.82,17.77-118,3.08-138.92-2.4-69.74-18.25-67.41-45.94-114.93-51.1C701.7,274.43,687,345,602.26,343.44c-41.9-.77-86.31-18.94-154-46.62-30.11-12.32-46.19-20.93-72.27-20-40.49,1.47-49.22,23.95-95.44,40.15-15.52,5.44-84.37,27.39-144.23-.4-39.55-18.36-44.83-44.35-88.52-55.88-26.19-6.91-49.75-4.29-65.25-1.12l2.77-160.87A469.53,469.53,0,0,0,47.61,151c42.59,29.89,73.09,51.29,114.83,56.32,33.05,4,65-6,128.89-26,52.45-16.4,59.29-24.51,86.76-24.62,35.3-.14,51.64,13.16,97.39,29.89,10.82,4,72.22,26.43,125.83,29.35,89.75,4.88,100.89-48.12,181.91-48.07,87.6.07,93.45,62,178.94,62.66,90.49.64,109.94-68.64,192.58-56.24,49.3,7.4,48.55,33,126.17,52.91,25.73,6.6,69.07,17.29,124.36,9.94a293.77,293.77,0,0,0,120.79-44.94Z"/></svg>